<svg id="visual" viewBox="0 0 900 600" width="900" height="600" xmlns="http://www.w3.org/2000/svg" xmlns:xlink="http://www.w3.org/1999/xlink" version="1.1"><g stroke-width="1" stroke-linejoin="bevel"><path d="M474 285L495.3 317L554.6 279Z" fill="#205a7a" stroke="#205a7a"></path><path d="M554.6 279L511.3 233L474 285Z" fill="#246688" stroke="#246688"></path><path d="M554.6 279L553.6 225L511.3 233Z" fill="#15384f" stroke="#15384f"></path><path d="M495.3 317L531.3 356L554.6 279Z" fill="#00101c" stroke="#00101c"></path><path d="M553.6 225L512.3 199L511.3 233Z" fill="#081a28" stroke="#081a28"></path><path d="M511.3 233L442 217L474 285Z" fill="#15384f" stroke="#15384f"></path><path d="M531.3 356L555.6 358L554.6 279Z" fill="#19435d" stroke="#19435d"></path><path d="M512.3 199L442 217L511.3 233Z" fill="#15384f" stroke="#15384f"></path><path d="M474 285L469 374L495.3 317Z" fill="#15384f" stroke="#15384f"></path><path d="M495.3 317L469 374L531.3 356Z" fill="#277297" stroke="#277297"></path><path d="M531.3 356L519.3 396L555.6 358Z" fill="#15384f" stroke="#15384f"></path><path d="M364.7 322L469 374L474 285Z" fill="#15384f" stroke="#15384f"></path><path d="M469 374L519.3 396L531.3 356Z" fill="#277297" stroke="#277297"></path><path d="M442 217L391.7 257L474 285Z" fill="#1d4e6b" stroke="#1d4e6b"></path><path d="M519.3 396L574.6 397L555.6 358Z" fill="#15384f" stroke="#15384f"></path><path d="M659.9 296L645.9 239L554.6 279Z" fill="#0c2435" stroke="#0c2435"></path><path d="M554.6 279L645.9 239L553.6 225Z" fill="#081a28" stroke="#081a28"></path><path d="M627.9 365L554.6 279L555.6 358Z" fill="#205a7a" stroke="#205a7a"></path><path d="M553.6 225L585.6 158L512.3 199Z" fill="#277297" stroke="#277297"></path><path d="M442 155L405.7 193L442 217Z" fill="#205a7a" stroke="#205a7a"></path><path d="M442 217L405.7 193L391.7 257Z" fill="#297ea6" stroke="#297ea6"></path><path d="M574.6 397L627.9 365L555.6 358Z" fill="#205a7a" stroke="#205a7a"></path><path d="M645.9 239L585.6 158L553.6 225Z" fill="#246688" stroke="#246688"></path><path d="M512.3 199L442 155L442 217Z" fill="#277297" stroke="#277297"></path><path d="M516.3 121L442 155L512.3 199Z" fill="#00101c" stroke="#00101c"></path><path d="M627.9 365L659.9 296L554.6 279Z" fill="#297ea6" stroke="#297ea6"></path><path d="M585.6 158L564.6 138L512.3 199Z" fill="#00101c" stroke="#00101c"></path><path d="M300.4 284L364.7 322L391.7 257Z" fill="#205a7a" stroke="#205a7a"></path><path d="M391.7 257L364.7 322L474 285Z" fill="#081a28" stroke="#081a28"></path><path d="M574.6 397L619.9 395L627.9 365Z" fill="#205a7a" stroke="#205a7a"></path><path d="M718.1 317L695.1 260L659.9 296Z" fill="#15384f" stroke="#15384f"></path><path d="M564.6 138L516.3 121L512.3 199Z" fill="#00101c" stroke="#00101c"></path><path d="M585.6 158L587.6 79L564.6 138Z" fill="#297ea6" stroke="#297ea6"></path><path d="M564.6 138L587.6 79L516.3 121Z" fill="#00101c" stroke="#00101c"></path><path d="M645.9 239L630.9 161L585.6 158Z" fill="#297ea6" stroke="#297ea6"></path><path d="M687.1 201L630.9 161L645.9 239Z" fill="#0c2435" stroke="#0c2435"></path><path d="M516.3 121L433 133L442 155Z" fill="#15384f" stroke="#15384f"></path><path d="M442 155L433 133L405.7 193Z" fill="#112e42" stroke="#112e42"></path><path d="M401.7 426L426 428L469 374Z" fill="#0c2435" stroke="#0c2435"></path><path d="M469 374L458 471L519.3 396Z" fill="#246688" stroke="#246688"></path><path d="M519.3 396L589.6 482L574.6 397Z" fill="#15384f" stroke="#15384f"></path><path d="M574.6 397L589.6 482L619.9 395Z" fill="#081a28" stroke="#081a28"></path><path d="M364.7 322L360.7 359L469 374Z" fill="#081a28" stroke="#081a28"></path><path d="M718.1 317L659.9 296L709.1 372Z" fill="#15384f" stroke="#15384f"></path><path d="M659.9 296L695.1 260L645.9 239Z" fill="#297ea6" stroke="#297ea6"></path><path d="M360.7 359L401.7 426L469 374Z" fill="#277297" stroke="#277297"></path><path d="M334.4 192L340.4 222L405.7 193Z" fill="#0c2435" stroke="#0c2435"></path><path d="M405.7 193L340.4 222L391.7 257Z" fill="#00101c" stroke="#00101c"></path><path d="M364.7 322L309.4 342L360.7 359Z" fill="#15384f" stroke="#15384f"></path><path d="M695.1 260L687.1 201L645.9 239Z" fill="#0c2435" stroke="#0c2435"></path><path d="M401.7 426L458 471L426 428Z" fill="#205a7a" stroke="#205a7a"></path><path d="M426 428L458 471L469 374Z" fill="#081a28" stroke="#081a28"></path><path d="M458 471L498.3 479L519.3 396Z" fill="#15384f" stroke="#15384f"></path><path d="M366.7 104L334.4 192L405.7 193Z" fill="#00101c" stroke="#00101c"></path><path d="M300.4 284L309.4 342L364.7 322Z" fill="#246688" stroke="#246688"></path><path d="M709.1 372L659.9 296L627.9 365Z" fill="#0c2435" stroke="#0c2435"></path><path d="M695.1 260L760.4 193L687.1 201Z" fill="#277297" stroke="#277297"></path><path d="M300.4 284L391.7 257L340.4 222Z" fill="#15384f" stroke="#15384f"></path><path d="M360.7 359L336.4 433L401.7 426Z" fill="#277297" stroke="#277297"></path><path d="M245.1 239L300.4 284L340.4 222Z" fill="#00101c" stroke="#00101c"></path><path d="M498.3 479L589.6 482L519.3 396Z" fill="#00101c" stroke="#00101c"></path><path d="M694.1 401L709.1 372L627.9 365Z" fill="#112e42" stroke="#112e42"></path><path d="M694.1 401L627.9 365L619.9 395Z" fill="#0c2435" stroke="#0c2435"></path><path d="M687.1 201L660.9 124L630.9 161Z" fill="#15384f" stroke="#15384f"></path><path d="M630.9 161L587.6 79L585.6 158Z" fill="#297ea6" stroke="#297ea6"></path><path d="M660.9 124L587.6 79L630.9 161Z" fill="#1d4e6b" stroke="#1d4e6b"></path><path d="M516.3 121L517.3 55L433 133Z" fill="#297ea6" stroke="#297ea6"></path><path d="M629.9 483L694.1 401L619.9 395Z" fill="#297ea6" stroke="#297ea6"></path><path d="M587.6 79L517.3 55L516.3 121Z" fill="#00101c" stroke="#00101c"></path><path d="M433 133L366.7 104L405.7 193Z" fill="#15384f" stroke="#15384f"></path><path d="M427 36L366.7 104L433 133Z" fill="#00101c" stroke="#00101c"></path><path d="M245.1 239L281.1 291L300.4 284Z" fill="#297ea6" stroke="#297ea6"></path><path d="M589.6 482L629.9 483L619.9 395Z" fill="#19435d" stroke="#19435d"></path><path d="M245.1 239L340.4 222L334.4 192Z" fill="#00101c" stroke="#00101c"></path><path d="M300.4 284L281.1 291L309.4 342Z" fill="#19435d" stroke="#19435d"></path><path d="M309.4 342L336.4 433L360.7 359Z" fill="#0c2435" stroke="#0c2435"></path><path d="M401.7 426L370.7 501L458 471Z" fill="#112e42" stroke="#112e42"></path><path d="M253.1 366L336.4 433L309.4 342Z" fill="#205a7a" stroke="#205a7a"></path><path d="M267.1 441L344.4 456L336.4 433Z" fill="#205a7a" stroke="#205a7a"></path><path d="M336.4 433L344.4 456L401.7 426Z" fill="#112e42" stroke="#112e42"></path><path d="M438 554L520.3 534L498.3 479Z" fill="#19435d" stroke="#19435d"></path><path d="M660.9 124L626.9 62L587.6 79Z" fill="#1d4e6b" stroke="#1d4e6b"></path><path d="M595.6 0L500.3 0L517.3 55Z" fill="#112e42" stroke="#112e42"></path><path d="M687.1 201L685.1 107L660.9 124Z" fill="#081a28" stroke="#081a28"></path><path d="M760.4 193L685.1 107L687.1 201Z" fill="#112e42" stroke="#112e42"></path><path d="M685.1 107L626.9 62L660.9 124Z" fill="#297ea6" stroke="#297ea6"></path><path d="M438 554L498.3 479L458 471Z" fill="#00101c" stroke="#00101c"></path><path d="M498.3 479L520.3 534L589.6 482Z" fill="#246688" stroke="#246688"></path><path d="M589.6 482L638.9 556L629.9 483Z" fill="#112e42" stroke="#112e42"></path><path d="M339.4 48L333.4 99L366.7 104Z" fill="#1d4e6b" stroke="#1d4e6b"></path><path d="M366.7 104L333.4 99L334.4 192Z" fill="#1d4e6b" stroke="#1d4e6b"></path><path d="M500.3 0L427 36L517.3 55Z" fill="#19435d" stroke="#19435d"></path><path d="M517.3 55L427 36L433 133Z" fill="#0c2435" stroke="#0c2435"></path><path d="M786.4 287L695.1 260L718.1 317Z" fill="#277297" stroke="#277297"></path><path d="M790.4 249L760.4 193L695.1 260Z" fill="#246688" stroke="#246688"></path><path d="M780.4 399L770.4 336L709.1 372Z" fill="#112e42" stroke="#112e42"></path><path d="M709.1 372L770.4 336L718.1 317Z" fill="#112e42" stroke="#112e42"></path><path d="M780.4 399L709.1 372L694.1 401Z" fill="#0c2435" stroke="#0c2435"></path><path d="M344.4 456L370.7 501L401.7 426Z" fill="#205a7a" stroke="#205a7a"></path><path d="M770.4 336L786.4 287L718.1 317Z" fill="#246688" stroke="#246688"></path><path d="M243.1 177L245.1 239L334.4 192Z" fill="#205a7a" stroke="#205a7a"></path><path d="M281.1 291L253.1 366L309.4 342Z" fill="#19435d" stroke="#19435d"></path><path d="M204.9 356L253.1 366L281.1 291Z" fill="#297ea6" stroke="#297ea6"></path><path d="M344.4 456L334.4 553L370.7 501Z" fill="#1d4e6b" stroke="#1d4e6b"></path><path d="M786.4 287L790.4 249L695.1 260Z" fill="#1d4e6b" stroke="#1d4e6b"></path><path d="M595.6 0L517.3 55L587.6 79Z" fill="#15384f" stroke="#15384f"></path><path d="M427 36L360.7 45L366.7 104Z" fill="#19435d" stroke="#19435d"></path><path d="M260.1 130L243.1 177L334.4 192Z" fill="#112e42" stroke="#112e42"></path><path d="M389.7 0L360.7 45L427 36Z" fill="#15384f" stroke="#15384f"></path><path d="M496.3 600L557.6 560L520.3 534Z" fill="#1d4e6b" stroke="#1d4e6b"></path><path d="M520.3 534L557.6 560L589.6 482Z" fill="#112e42" stroke="#112e42"></path><path d="M778.4 463L780.4 399L694.1 401Z" fill="#00101c" stroke="#00101c"></path><path d="M407.7 546L438 554L458 471Z" fill="#1d4e6b" stroke="#1d4e6b"></path><path d="M370.7 501L407.7 546L458 471Z" fill="#112e42" stroke="#112e42"></path><path d="M334.4 553L407.7 546L370.7 501Z" fill="#205a7a" stroke="#205a7a"></path><path d="M685.1 107L696.1 58L626.9 62Z" fill="#1d4e6b" stroke="#1d4e6b"></path><path d="M626.9 62L595.6 0L587.6 79Z" fill="#112e42" stroke="#112e42"></path><path d="M775.4 122L696.1 58L685.1 107Z" fill="#205a7a" stroke="#205a7a"></path><path d="M775.4 122L685.1 107L760.4 193Z" fill="#081a28" stroke="#081a28"></path><path d="M260.1 130L334.4 192L333.4 99Z" fill="#277297" stroke="#277297"></path><path d="M500.3 0L441 0L427 36Z" fill="#15384f" stroke="#15384f"></path><path d="M731.1 491L694.1 401L629.9 483Z" fill="#19435d" stroke="#19435d"></path><path d="M770.4 336L822.7 342L786.4 287Z" fill="#00101c" stroke="#00101c"></path><path d="M858.7 316L829.7 219L790.4 249Z" fill="#0c2435" stroke="#0c2435"></path><path d="M325.4 0L339.4 48L360.7 45Z" fill="#277297" stroke="#277297"></path><path d="M360.7 45L339.4 48L366.7 104Z" fill="#1d4e6b" stroke="#1d4e6b"></path><path d="M641.9 0L595.6 0L626.9 62Z" fill="#112e42" stroke="#112e42"></path><path d="M253.1 366L267.1 441L336.4 433Z" fill="#277297" stroke="#277297"></path><path d="M249.1 66L260.1 130L333.4 99Z" fill="#081a28" stroke="#081a28"></path><path d="M557.6 560L638.9 556L589.6 482Z" fill="#19435d" stroke="#19435d"></path><path d="M691.1 549L731.1 491L629.9 483Z" fill="#246688" stroke="#246688"></path><path d="M845.7 156L775.4 122L760.4 193Z" fill="#00101c" stroke="#00101c"></path><path d="M441 0L389.7 0L427 36Z" fill="#19435d" stroke="#19435d"></path><path d="M686.1 0L641.9 0L696.1 58Z" fill="#15384f" stroke="#15384f"></path><path d="M696.1 58L641.9 0L626.9 62Z" fill="#1d4e6b" stroke="#1d4e6b"></path><path d="M847.7 444L822.7 342L780.4 399Z" fill="#1d4e6b" stroke="#1d4e6b"></path><path d="M780.4 399L822.7 342L770.4 336Z" fill="#15384f" stroke="#15384f"></path><path d="M790.4 249L829.7 219L760.4 193Z" fill="#1d4e6b" stroke="#1d4e6b"></path><path d="M170.9 123L209.9 189L243.1 177Z" fill="#205a7a" stroke="#205a7a"></path><path d="M243.1 177L209.9 189L245.1 239Z" fill="#19435d" stroke="#19435d"></path><path d="M177.9 303L204.9 356L281.1 291Z" fill="#0c2435" stroke="#0c2435"></path><path d="M253.1 366L211.9 421L267.1 441Z" fill="#297ea6" stroke="#297ea6"></path><path d="M177.9 303L281.1 291L245.1 239Z" fill="#15384f" stroke="#15384f"></path><path d="M438 554L496.3 600L520.3 534Z" fill="#15384f" stroke="#15384f"></path><path d="M557.6 560L576.6 600L638.9 556Z" fill="#15384f" stroke="#15384f"></path><path d="M441 600L496.3 600L438 554Z" fill="#246688" stroke="#246688"></path><path d="M731.1 491L778.4 463L694.1 401Z" fill="#112e42" stroke="#112e42"></path><path d="M818.7 489L778.4 463L781.4 557Z" fill="#15384f" stroke="#15384f"></path><path d="M706.1 600L691.1 549L638.9 556Z" fill="#297ea6" stroke="#297ea6"></path><path d="M638.9 556L691.1 549L629.9 483Z" fill="#112e42" stroke="#112e42"></path><path d="M858.7 316L790.4 249L786.4 287Z" fill="#19435d" stroke="#19435d"></path><path d="M496.3 600L576.6 600L557.6 560Z" fill="#00101c" stroke="#00101c"></path><path d="M250.1 482L344.4 456L267.1 441Z" fill="#297ea6" stroke="#297ea6"></path><path d="M250.1 482L334.4 553L344.4 456Z" fill="#246688" stroke="#246688"></path><path d="M407.7 546L441 600L438 554Z" fill="#205a7a" stroke="#205a7a"></path><path d="M383.7 600L441 600L407.7 546Z" fill="#112e42" stroke="#112e42"></path><path d="M770.4 0L686.1 0L696.1 58Z" fill="#297ea6" stroke="#297ea6"></path><path d="M211.9 421L250.1 482L267.1 441Z" fill="#0c2435" stroke="#0c2435"></path><path d="M204.9 356L211.9 421L253.1 366Z" fill="#205a7a" stroke="#205a7a"></path><path d="M576.6 600L620.9 600L638.9 556Z" fill="#19435d" stroke="#19435d"></path><path d="M172.9 220L177.9 303L245.1 239Z" fill="#112e42" stroke="#112e42"></path><path d="M133.6 437L179.9 461L211.9 421Z" fill="#1d4e6b" stroke="#1d4e6b"></path><path d="M339.4 48L249.1 66L333.4 99Z" fill="#081a28" stroke="#081a28"></path><path d="M260.1 130L170.9 123L243.1 177Z" fill="#277297" stroke="#277297"></path><path d="M389.7 0L325.4 0L360.7 45Z" fill="#19435d" stroke="#19435d"></path><path d="M325.4 0L249.1 66L339.4 48Z" fill="#246688" stroke="#246688"></path><path d="M334.4 553L383.7 600L407.7 546Z" fill="#297ea6" stroke="#297ea6"></path><path d="M307.4 600L383.7 600L334.4 553Z" fill="#081a28" stroke="#081a28"></path><path d="M900 322L858.7 316L900 360Z" fill="#081a28" stroke="#081a28"></path><path d="M822.7 342L858.7 316L786.4 287Z" fill="#00101c" stroke="#00101c"></path><path d="M151.6 222L172.9 220L123.6 199Z" fill="#112e42" stroke="#112e42"></path><path d="M209.9 189L172.9 220L245.1 239Z" fill="#112e42" stroke="#112e42"></path><path d="M829.7 219L845.7 156L760.4 193Z" fill="#112e42" stroke="#112e42"></path><path d="M775.4 122L784.4 44L696.1 58Z" fill="#15384f" stroke="#15384f"></path><path d="M900 155L845.7 156L829.7 219Z" fill="#15384f" stroke="#15384f"></path><path d="M833.7 111L784.4 44L775.4 122Z" fill="#15384f" stroke="#15384f"></path><path d="M180.9 547L258.1 536L250.1 482Z" fill="#19435d" stroke="#19435d"></path><path d="M250.1 482L258.1 536L334.4 553Z" fill="#277297" stroke="#277297"></path><path d="M845.7 156L833.7 111L775.4 122Z" fill="#00101c" stroke="#00101c"></path><path d="M205.9 0L206.9 82L249.1 66Z" fill="#297ea6" stroke="#297ea6"></path><path d="M249.1 66L206.9 82L260.1 130Z" fill="#112e42" stroke="#112e42"></path><path d="M123.6 199L172.9 220L209.9 189Z" fill="#277297" stroke="#277297"></path><path d="M172.9 220L151.6 222L177.9 303Z" fill="#00101c" stroke="#00101c"></path><path d="M129.6 378L211.9 421L204.9 356Z" fill="#205a7a" stroke="#205a7a"></path><path d="M781.4 557L778.4 463L731.1 491Z" fill="#19435d" stroke="#19435d"></path><path d="M778.4 463L847.7 444L780.4 399Z" fill="#081a28" stroke="#081a28"></path><path d="M781.4 557L731.1 491L691.1 549Z" fill="#0c2435" stroke="#0c2435"></path><path d="M818.7 489L847.7 444L778.4 463Z" fill="#112e42" stroke="#112e42"></path><path d="M620.9 600L706.1 600L638.9 556Z" fill="#00101c" stroke="#00101c"></path><path d="M206.9 82L170.9 123L260.1 130Z" fill="#15384f" stroke="#15384f"></path><path d="M129.6 378L204.9 356L177.9 303Z" fill="#205a7a" stroke="#205a7a"></path><path d="M211.9 421L179.9 461L250.1 482Z" fill="#277297" stroke="#277297"></path><path d="M254.1 600L307.4 600L258.1 536Z" fill="#0c2435" stroke="#0c2435"></path><path d="M258.1 536L307.4 600L334.4 553Z" fill="#0c2435" stroke="#0c2435"></path><path d="M848.7 0L770.4 0L784.4 44Z" fill="#15384f" stroke="#15384f"></path><path d="M784.4 44L770.4 0L696.1 58Z" fill="#081a28" stroke="#081a28"></path><path d="M706.1 600L781.4 557L691.1 549Z" fill="#0c2435" stroke="#0c2435"></path><path d="M900 481L900 411L847.7 444Z" fill="#112e42" stroke="#112e42"></path><path d="M900 322L900 245L858.7 316Z" fill="#277297" stroke="#277297"></path><path d="M858.7 316L900 245L829.7 219Z" fill="#277297" stroke="#277297"></path><path d="M845.7 156L900 142L833.7 111Z" fill="#15384f" stroke="#15384f"></path><path d="M900 360L858.7 316L822.7 342Z" fill="#246688" stroke="#246688"></path><path d="M325.4 0L247.1 0L249.1 66Z" fill="#112e42" stroke="#112e42"></path><path d="M206.9 82L113.6 102L170.9 123Z" fill="#277297" stroke="#277297"></path><path d="M79.3 278L123.6 289L151.6 222Z" fill="#1d4e6b" stroke="#1d4e6b"></path><path d="M151.6 222L123.6 289L177.9 303Z" fill="#277297" stroke="#277297"></path><path d="M900 411L822.7 342L847.7 444Z" fill="#0c2435" stroke="#0c2435"></path><path d="M900 411L900 360L822.7 342Z" fill="#297ea6" stroke="#297ea6"></path><path d="M123.6 289L129.6 378L177.9 303Z" fill="#081a28" stroke="#081a28"></path><path d="M113.6 102L123.6 199L170.9 123Z" fill="#112e42" stroke="#112e42"></path><path d="M170.9 123L123.6 199L209.9 189Z" fill="#277297" stroke="#277297"></path><path d="M900 245L900 155L829.7 219Z" fill="#15384f" stroke="#15384f"></path><path d="M833.7 111L855.7 59L784.4 44Z" fill="#19435d" stroke="#19435d"></path><path d="M900 481L847.7 444L818.7 489Z" fill="#205a7a" stroke="#205a7a"></path><path d="M900 142L855.7 59L833.7 111Z" fill="#205a7a" stroke="#205a7a"></path><path d="M900 155L900 142L845.7 156Z" fill="#081a28" stroke="#081a28"></path><path d="M129.6 378L133.6 437L211.9 421Z" fill="#1d4e6b" stroke="#1d4e6b"></path><path d="M180.9 547L254.1 600L258.1 536Z" fill="#1d4e6b" stroke="#1d4e6b"></path><path d="M180.9 547L250.1 482L179.9 461Z" fill="#246688" stroke="#246688"></path><path d="M781.4 557L842.7 529L818.7 489Z" fill="#277297" stroke="#277297"></path><path d="M814.7 600L842.7 529L781.4 557Z" fill="#00101c" stroke="#00101c"></path><path d="M706.1 600L781.4 600L781.4 557Z" fill="#277297" stroke="#277297"></path><path d="M247.1 0L205.9 0L249.1 66Z" fill="#0c2435" stroke="#0c2435"></path><path d="M133.6 437L138.6 473L179.9 461Z" fill="#297ea6" stroke="#297ea6"></path><path d="M138.6 473L180.9 547L179.9 461Z" fill="#1d4e6b" stroke="#1d4e6b"></path><path d="M900 542L900 481L842.7 529Z" fill="#297ea6" stroke="#297ea6"></path><path d="M842.7 529L900 481L818.7 489Z" fill="#297ea6" stroke="#297ea6"></path><path d="M129.6 378L87.3 362L133.6 437Z" fill="#0c2435" stroke="#0c2435"></path><path d="M133.6 437L84.3 468L138.6 473Z" fill="#1d4e6b" stroke="#1d4e6b"></path><path d="M123.6 289L87.3 362L129.6 378Z" fill="#0c2435" stroke="#0c2435"></path><path d="M79.3 278L87.3 362L123.6 289Z" fill="#15384f" stroke="#15384f"></path><path d="M60.3 232L79.3 278L123.6 199Z" fill="#00101c" stroke="#00101c"></path><path d="M123.6 199L79.3 278L151.6 222Z" fill="#00101c" stroke="#00101c"></path><path d="M900 36L848.7 0L855.7 59Z" fill="#112e42" stroke="#112e42"></path><path d="M855.7 59L848.7 0L784.4 44Z" fill="#00101c" stroke="#00101c"></path><path d="M781.4 600L814.7 600L781.4 557Z" fill="#19435d" stroke="#19435d"></path><path d="M109.6 46L113.6 102L206.9 82Z" fill="#246688" stroke="#246688"></path><path d="M51.3 173L60.3 232L123.6 199Z" fill="#19435d" stroke="#19435d"></path><path d="M0 380L41.3 443L87.3 362Z" fill="#205a7a" stroke="#205a7a"></path><path d="M900 142L900 36L855.7 59Z" fill="#081a28" stroke="#081a28"></path><path d="M205.9 0L150.6 0L206.9 82Z" fill="#246688" stroke="#246688"></path><path d="M113.6 102L79.3 105L123.6 199Z" fill="#0c2435" stroke="#0c2435"></path><path d="M108.6 553L180.9 547L138.6 473Z" fill="#19435d" stroke="#19435d"></path><path d="M127.6 600L177.9 600L180.9 547Z" fill="#205a7a" stroke="#205a7a"></path><path d="M180.9 547L177.9 600L254.1 600Z" fill="#277297" stroke="#277297"></path><path d="M900 600L900 542L842.7 529Z" fill="#277297" stroke="#277297"></path><path d="M150.6 0L109.6 46L206.9 82Z" fill="#19435d" stroke="#19435d"></path><path d="M41.3 443L133.6 437L87.3 362Z" fill="#297ea6" stroke="#297ea6"></path><path d="M41.3 443L84.3 468L133.6 437Z" fill="#15384f" stroke="#15384f"></path><path d="M109.6 46L79.3 105L113.6 102Z" fill="#277297" stroke="#277297"></path><path d="M79.3 105L51.3 173L123.6 199Z" fill="#112e42" stroke="#112e42"></path><path d="M0 298L87.3 362L79.3 278Z" fill="#297ea6" stroke="#297ea6"></path><path d="M900 36L900 0L848.7 0Z" fill="#15384f" stroke="#15384f"></path><path d="M84.3 468L108.6 553L138.6 473Z" fill="#277297" stroke="#277297"></path><path d="M0 298L79.3 278L0 256Z" fill="#081a28" stroke="#081a28"></path><path d="M84.3 468L41.3 542L108.6 553Z" fill="#19435d" stroke="#19435d"></path><path d="M814.7 600L900 600L842.7 529Z" fill="#297ea6" stroke="#297ea6"></path><path d="M65.3 600L127.6 600L108.6 553Z" fill="#00101c" stroke="#00101c"></path><path d="M108.6 553L127.6 600L180.9 547Z" fill="#246688" stroke="#246688"></path><path d="M0 256L79.3 278L60.3 232Z" fill="#19435d" stroke="#19435d"></path><path d="M0 191L60.3 232L51.3 173Z" fill="#00101c" stroke="#00101c"></path><path d="M0 191L0 256L60.3 232Z" fill="#081a28" stroke="#081a28"></path><path d="M0 191L51.3 173L0 102Z" fill="#0c2435" stroke="#0c2435"></path><path d="M0 102L51.3 173L79.3 105Z" fill="#297ea6" stroke="#297ea6"></path><path d="M0 298L0 380L87.3 362Z" fill="#205a7a" stroke="#205a7a"></path><path d="M0 502L41.3 542L84.3 468Z" fill="#081a28" stroke="#081a28"></path><path d="M39.3 0L46.3 46L109.6 46Z" fill="#00101c" stroke="#00101c"></path><path d="M109.6 46L46.3 46L79.3 105Z" fill="#246688" stroke="#246688"></path><path d="M0 380L0 412L41.3 443Z" fill="#0c2435" stroke="#0c2435"></path><path d="M0 502L84.3 468L41.3 443Z" fill="#0c2435" stroke="#0c2435"></path><path d="M46.3 46L0 102L79.3 105Z" fill="#246688" stroke="#246688"></path><path d="M41.3 542L65.3 600L108.6 553Z" fill="#00101c" stroke="#00101c"></path><path d="M150.6 0L39.3 0L109.6 46Z" fill="#081a28" stroke="#081a28"></path><path d="M46.3 46L0 42L0 102Z" fill="#00101c" stroke="#00101c"></path><path d="M0 412L0 502L41.3 443Z" fill="#246688" stroke="#246688"></path><path d="M41.3 542L0 600L65.3 600Z" fill="#277297" stroke="#277297"></path><path d="M39.3 0L0 42L46.3 46Z" fill="#00101c" stroke="#00101c"></path><path d="M0 502L0 536L41.3 542Z" fill="#205a7a" stroke="#205a7a"></path><path d="M39.3 0L0 0L0 42Z" fill="#15384f" stroke="#15384f"></path><path d="M0 536L0 600L41.3 542Z" fill="#112e42" stroke="#112e42"></path></g></svg>